<svg version="1.1" id="Layer_1" xmlns="http://www.w3.org/2000/svg" xmlns:xlink="http://www.w3.org/1999/xlink" x="0px" y="0px"
	 width="100%" viewBox="0 0 200 202" enable-background="new 0 0 200 202" xml:space="preserve">
<path fill="#000000" opacity="1.000000" stroke="none" 
	d="
M1.000000,92.000000 
	C1.000000,61.683540 1.000000,31.367081 1.000000,1.025311 
	C67.612701,1.025311 134.225403,1.025311 200.919067,1.025311 
	C200.919067,68.241829 200.919067,135.483795 200.919067,202.862885 
	C134.333511,202.862885 67.666801,202.862885 1.000000,202.862885 
	C1.000000,171.902969 1.000000,140.920135 1.398174,109.276978 
	C2.552299,112.725616 3.147817,116.871796 4.090213,120.937569 
	C10.255342,147.535767 24.272173,168.574707 47.610409,183.322495 
	C70.391411,197.718155 94.995308,201.382660 120.920074,195.900009 
	C146.059921,190.583344 166.289307,176.883972 180.523941,155.612564 
	C193.981155,135.502899 199.515381,113.157028 196.213913,88.656013 
	C193.630005,69.480194 186.262939,52.588383 173.657440,38.350655 
	C155.745804,18.119680 133.784790,5.567341 105.796722,4.767223 
	C95.761482,4.480337 86.054138,4.656836 76.267754,6.933942 
	C56.331909,11.572634 39.855026,21.523283 26.373507,36.993504 
	C14.363542,50.775097 7.052365,66.511017 3.882221,84.389503 
	C3.416825,87.014168 1.984784,89.467430 1.000000,92.000000 
z"/>
<path fill="#44AFAA" opacity="1.000000" stroke="none" 
	d="
M1.000000,92.467606 
	C1.984784,89.467430 3.416825,87.014168 3.882221,84.389503 
	C7.052365,66.511017 14.363542,50.775097 26.373507,36.993504 
	C39.855026,21.523283 56.331909,11.572634 76.267754,6.933942 
	C86.054138,4.656836 95.761482,4.480337 105.796722,4.767223 
	C133.784790,5.567341 155.745804,18.119680 173.657440,38.350655 
	C186.262939,52.588383 193.630005,69.480194 196.213913,88.656013 
	C199.515381,113.157028 193.981155,135.502899 180.523941,155.612564 
	C166.289307,176.883972 146.059921,190.583344 120.920074,195.900009 
	C94.995308,201.382660 70.391411,197.718155 47.610409,183.322495 
	C24.272173,168.574707 10.255342,147.535767 4.090213,120.937569 
	C3.147817,116.871796 2.552299,112.725616 1.398174,108.808319 
	C1.000000,103.645073 1.000000,98.290138 1.000000,92.467606 
M12.018540,110.684311 
	C16.300985,155.196274 57.053959,195.912186 111.156326,188.877518 
	C151.570709,183.622650 190.583771,147.338593 187.768143,96.616577 
	C185.196548,50.290699 149.420776,16.101847 105.465065,13.046105 
	C53.385929,9.425637 13.246936,51.039738 11.241822,97.604980 
	C11.432683,101.683235 11.623545,105.761482 12.018540,110.684311 
z"/>
<path fill="#000000" opacity="1.000000" stroke="none" 
	d="
M11.845209,97.046928 
	C13.246936,51.039738 53.385929,9.425637 105.465065,13.046105 
	C149.420776,16.101847 185.196548,50.290699 187.768143,96.616577 
	C190.583771,147.338593 151.570709,183.622650 111.156326,188.877518 
	C57.053959,195.912186 16.300985,155.196274 11.975117,109.854256 
	C14.275335,108.629608 16.618977,108.235016 19.303999,107.994949 
	C23.933872,112.595695 23.570436,117.902626 22.264408,123.268555 
	C19.467039,134.761780 26.126043,143.451324 37.635029,142.857147 
	C38.803226,142.796829 40.689800,140.919052 40.767490,139.783722 
	C40.849224,138.589386 39.347847,136.401062 38.210083,136.153183 
	C31.030472,134.589005 31.282497,134.713318 30.919184,127.368515 
	C30.522646,119.352058 34.012043,110.299225 24.932735,104.519753 
	C29.431389,101.501122 30.980883,98.563240 30.993322,93.642487 
	C31.003412,89.650803 30.994745,85.659065 30.995358,81.667351 
	C30.996498,74.223419 31.014763,74.313942 38.181343,72.891075 
	C39.250595,72.678787 40.645504,71.260201 40.834209,70.209991 
	C41.049805,69.010101 40.484787,66.963737 39.566013,66.384651 
	C34.793507,63.376602 24.842979,67.125565 23.884718,72.716484 
	C22.892408,78.506050 23.124920,84.523964 23.034941,90.445244 
	C22.915024,98.336609 21.053345,100.427078 12.677733,100.973465 
	C12.172028,99.552010 12.008618,98.299469 11.845209,97.046928 
M146.840622,143.570511 
	C146.892578,116.392326 146.951111,89.214142 146.955307,62.035946 
	C146.955399,61.412437 146.341629,60.788834 145.085037,60.023403 
	C139.134964,60.023403 133.184906,60.023403 127.284843,60.023403 
	C126.709564,64.345055 126.080063,68.096977 132.285385,66.106483 
	C133.643539,65.670830 135.425629,66.556824 137.781570,67.290092 
	C137.854904,89.552460 137.978775,111.815071 137.870743,134.076553 
	C137.864532,135.354477 135.967590,136.623199 134.062592,137.986267 
	C131.808487,137.986267 129.554382,137.986267 126.923157,137.986267 
	C127.061470,140.491882 127.170387,142.464859 127.246010,143.834717 
	C134.053909,143.834717 140.034012,143.834717 146.840622,143.570511 
M62.866310,66.018570 
	C65.932083,66.018570 68.997856,66.018570 72.167755,66.018570 
	C73.855316,60.947506 73.304550,60.051010 68.078094,60.014072 
	C63.130669,59.979103 58.182800,60.006561 52.999256,60.006561 
	C52.999256,64.263992 52.999256,68.048271 52.221542,72.275688 
	C52.149090,94.232880 52.067745,116.190063 52.046253,138.147308 
	C52.045593,138.820328 52.667450,139.493958 52.963657,140.939651 
	C53.658192,142.103409 54.306805,144.241318 55.054543,144.276566 
	C60.949566,144.554489 66.863518,144.430939 72.716743,144.430939 
	C73.020767,138.064331 73.020622,138.074585 67.960938,138.001450 
	C65.969818,137.972687 63.979527,137.886734 61.999146,136.916901 
	C61.995731,113.335579 61.992321,89.754250 62.866310,66.018570 
M169.716766,104.789474 
	C169.479324,109.537888 169.082764,114.284767 169.036774,119.035034 
	C168.933487,129.699280 168.466614,130.374908 158.154343,132.652710 
	C157.899033,138.750778 157.896805,138.732880 163.560165,138.027328 
	C164.543991,137.904755 165.555603,138.004181 166.554382,138.002914 
	C171.425339,137.996750 175.136612,135.555603 175.873383,130.994370 
	C176.888153,124.712021 176.800491,118.236557 176.971344,111.838104 
	C177.089478,107.414436 177.205811,103.478836 183.430054,103.804741 
	C184.554764,103.863632 185.802490,101.573349 186.993408,100.367615 
	C185.764969,99.246719 184.597855,97.253235 183.297073,97.161835 
	C178.629990,96.833885 176.916153,94.485367 176.988083,90.108536 
	C177.075607,84.782707 177.096115,79.452614 176.988434,74.127541 
	C176.851364,67.348892 172.743912,62.709454 166.228622,62.049927 
	C163.628708,61.786747 160.979889,62.006664 157.858444,62.006664 
	C158.545044,65.138969 156.219025,68.983963 161.859100,69.055527 
	C167.199661,69.123283 168.945343,71.194504 168.995255,76.700989 
	C169.039001,81.528419 168.602936,86.402634 169.149857,91.167686 
	C169.496536,94.188110 171.255310,97.046455 172.380798,99.977486 
	C172.823441,99.806877 173.266068,99.636269 173.708710,99.465652 
	C172.458557,100.982109 171.208405,102.498558 169.716766,104.789474 
M108.184433,111.628342 
	C110.744720,111.287529 113.305008,110.946716 115.907585,110.600273 
	C116.300018,104.808998 111.010963,108.331802 108.956841,106.097664 
	C109.424187,103.608200 109.925041,100.940277 110.485504,97.954819 
	C112.564102,97.954819 114.507858,97.954819 116.500565,97.954819 
	C118.224052,91.848648 112.693222,95.215164 111.228500,93.341476 
	C111.492661,91.051773 111.268867,88.450005 112.144150,86.294548 
	C114.371017,80.810722 111.291084,80.872223 107.235146,81.094658 
	C107.127632,82.414917 107.125206,83.556885 106.919350,84.660927 
	C106.711922,85.773392 106.131798,86.829407 106.009399,87.942535 
	C105.265411,94.708374 104.925713,94.963951 97.692955,93.136177 
	C98.110527,90.794266 98.969421,88.383499 98.815437,86.039268 
	C98.702919,84.326302 97.257545,82.700874 96.406303,81.036430 
	C95.269966,82.324997 93.618057,83.439934 93.112564,84.940956 
	C92.255394,87.486237 92.121590,90.275131 91.815163,92.155266 
	C88.664215,94.010277 83.773987,92.093872 84.003662,97.778168 
	C86.803169,97.984184 88.856323,98.135269 91.167824,98.305374 
	C89.924889,102.659630 90.612709,107.763443 84.095833,107.270981 
	C83.810379,107.249405 83.359177,109.421280 82.925262,110.755707 
	C85.382812,110.956268 87.011131,111.089157 88.651611,111.223038 
	C88.086830,115.163887 87.552803,118.890160 87.011375,122.668076 
	C89.384941,122.668076 91.113518,122.668076 92.801933,122.668076 
	C94.160080,109.242012 94.712234,110.149902 102.196556,111.798210 
	C101.645950,115.416275 101.091278,119.061073 100.530579,122.745468 
	C105.189644,123.919357 107.303886,122.186913 107.067245,117.271446 
	C106.991577,115.699730 107.691368,114.090668 108.184433,111.628342 
z"/>
<path fill="#CDEDE9" opacity="1.000000" stroke="none" 
	d="
M18.962618,107.840424 
	C16.618977,108.235016 14.275335,108.629608 11.873051,109.431969 
	C11.623545,105.761482 11.432683,101.683235 11.543516,97.325958 
	C12.008618,98.299469 12.172028,99.552010 12.689920,101.386086 
	C13.153830,103.519394 13.263254,105.071159 13.350979,106.315193 
	C15.604434,106.927681 17.283525,107.384056 18.962618,107.840424 
z"/>
<path fill="#17C3E0" opacity="1.000000" stroke="none" 
	d="
M61.988857,137.826813 
	C63.979527,137.886734 65.969818,137.972687 67.960938,138.001450 
	C73.020622,138.074585 73.020767,138.064331 72.716743,144.430939 
	C66.863518,144.430939 60.949566,144.554489 55.054543,144.276566 
	C54.306805,144.241318 53.658192,142.103409 53.073677,140.081284 
	C53.122215,116.759460 53.060738,94.296005 52.999256,71.832550 
	C52.999256,68.048271 52.999256,64.263992 52.999256,60.006561 
	C58.182800,60.006561 63.130669,59.979103 68.078094,60.014072 
	C73.304550,60.051010 73.855316,60.947506 72.167755,66.018570 
	C68.997856,66.018570 65.932083,66.018570 62.055344,66.287003 
	C61.160591,89.642296 61.068375,112.729134 61.035114,135.816071 
	C61.034149,136.485870 61.656914,137.156540 61.988857,137.826813 
z"/>
<path fill="#94E4D1" opacity="1.000000" stroke="none" 
	d="
M19.303999,107.994949 
	C17.283525,107.384056 15.604434,106.927681 13.350979,106.315193 
	C13.263254,105.071159 13.153830,103.519394 13.032217,101.555000 
	C21.053345,100.427078 22.915024,98.336609 23.034941,90.445244 
	C23.124920,84.523964 22.892408,78.506050 23.884718,72.716484 
	C24.842979,67.125565 34.793507,63.376602 39.566013,66.384651 
	C40.484787,66.963737 41.049805,69.010101 40.834209,70.209991 
	C40.645504,71.260201 39.250595,72.678787 38.181343,72.891075 
	C31.014763,74.313942 30.996498,74.223419 30.995358,81.667351 
	C30.994745,85.659065 31.003412,89.650803 30.993322,93.642487 
	C30.980883,98.563240 29.431389,101.501122 24.932735,104.519753 
	C34.012043,110.299225 30.522646,119.352058 30.919184,127.368515 
	C31.282497,134.713318 31.030472,134.589005 38.210083,136.153183 
	C39.347847,136.401062 40.849224,138.589386 40.767490,139.783722 
	C40.689800,140.919052 38.803226,142.796829 37.635029,142.857147 
	C26.126043,143.451324 19.467039,134.761780 22.264408,123.268555 
	C23.570436,117.902626 23.933872,112.595695 19.303999,107.994949 
z"/>
<path fill="#93E4D1" opacity="1.000000" stroke="none" 
	d="
M169.837494,104.402245 
	C171.208405,102.498558 172.458557,100.982109 173.708710,99.465652 
	C173.266068,99.636269 172.823441,99.806877 172.380798,99.977486 
	C171.255310,97.046455 169.496536,94.188110 169.149857,91.167686 
	C168.602936,86.402634 169.039001,81.528419 168.995255,76.700989 
	C168.945343,71.194504 167.199661,69.123283 161.859100,69.055527 
	C156.219025,68.983963 158.545044,65.138969 157.858444,62.006664 
	C160.979889,62.006664 163.628708,61.786747 166.228622,62.049927 
	C172.743912,62.709454 176.851364,67.348892 176.988434,74.127541 
	C177.096115,79.452614 177.075607,84.782707 176.988083,90.108536 
	C176.916153,94.485367 178.629990,96.833885 183.297073,97.161835 
	C184.597855,97.253235 185.764969,99.246719 186.993408,100.367615 
	C185.802490,101.573349 184.554764,103.863632 183.430054,103.804741 
	C177.205811,103.478836 177.089478,107.414436 176.971344,111.838104 
	C176.800491,118.236557 176.888153,124.712021 175.873383,130.994370 
	C175.136612,135.555603 171.425339,137.996750 166.554382,138.002914 
	C165.555603,138.004181 164.543991,137.904755 163.560165,138.027328 
	C157.896805,138.732880 157.899033,138.750778 158.154343,132.652710 
	C168.466614,130.374908 168.933487,129.699280 169.036774,119.035034 
	C169.082764,114.284767 169.479324,109.537888 169.837494,104.402245 
z"/>
<path fill="#0EC0DF" opacity="1.000000" stroke="none" 
	d="
M137.012482,66.834152 
	C135.425629,66.556824 133.643539,65.670830 132.285385,66.106483 
	C126.080063,68.096977 126.709564,64.345055 127.284843,60.023403 
	C133.184906,60.023403 139.134964,60.023403 145.547180,60.552216 
	C146.010925,88.665596 146.012527,116.250153 146.014130,143.834717 
	C140.034012,143.834717 134.053909,143.834717 127.246010,143.834717 
	C127.170387,142.464859 127.061470,140.491882 126.923157,137.986267 
	C129.554382,137.986267 131.808487,137.986267 134.940582,138.017456 
	C139.733704,138.605026 139.026993,135.794815 139.028641,133.578445 
	C139.043259,113.829758 139.037872,94.081062 139.036514,74.332367 
	C139.036362,72.175026 139.125549,70.008316 138.927383,67.868713 
	C138.890289,67.468185 137.680893,67.176216 137.012482,66.834152 
z"/>
<path fill="#0B9BB5" opacity="1.000000" stroke="none" 
	d="
M108.110397,112.063515 
	C107.691368,114.090668 106.991577,115.699730 107.067245,117.271446 
	C107.303886,122.186913 105.189644,123.919357 100.530579,122.745468 
	C101.091278,119.061073 101.645950,115.416275 102.196556,111.798210 
	C94.712234,110.149902 94.160080,109.242012 92.801933,122.668076 
	C91.113518,122.668076 89.384941,122.668076 87.011375,122.668076 
	C87.552803,118.890160 88.086830,115.163887 88.651611,111.223038 
	C87.011131,111.089157 85.382812,110.956268 82.925262,110.755707 
	C83.359177,109.421280 83.810379,107.249405 84.095833,107.270981 
	C90.612709,107.763443 89.924889,102.659630 91.167824,98.305374 
	C88.856323,98.135269 86.803169,97.984184 84.003662,97.778168 
	C83.773987,92.093872 88.664215,94.010277 91.815163,92.155266 
	C92.121590,90.275131 92.255394,87.486237 93.112564,84.940956 
	C93.618057,83.439934 95.269966,82.324997 96.406303,81.036430 
	C97.257545,82.700874 98.702919,84.326302 98.815437,86.039268 
	C98.969421,88.383499 98.110527,90.794266 97.692955,93.136177 
	C104.925713,94.963951 105.265411,94.708374 106.009399,87.942535 
	C106.131798,86.829407 106.711922,85.773392 106.919350,84.660927 
	C107.125206,83.556885 107.127632,82.414917 107.235146,81.094658 
	C111.291084,80.872223 114.371017,80.810722 112.144150,86.294548 
	C111.268867,88.450005 111.492661,91.051773 111.228500,93.341476 
	C112.693222,95.215164 118.224052,91.848648 116.500565,97.954819 
	C114.507858,97.954819 112.564102,97.954819 110.485504,97.954819 
	C109.925041,100.940277 109.424187,103.608200 108.956841,106.097664 
	C111.010963,108.331802 116.300018,104.808998 115.907585,110.600273 
	C113.305008,110.946716 110.744720,111.287529 108.110397,112.063515 
M96.001007,102.398766 
	C95.767326,103.784531 95.533646,105.170303 95.299828,106.556877 
	C103.585732,107.713303 104.871986,106.394600 103.348236,98.021690 
	C100.652687,98.751808 96.415100,95.726379 96.001007,102.398766 
z"/>
<path fill="#8DE1F0" opacity="1.000000" stroke="none" 
	d="
M146.427368,143.702606 
	C146.012527,116.250153 146.010925,88.665596 146.011749,60.623154 
	C146.341629,60.788834 146.955399,61.412437 146.955307,62.035946 
	C146.951111,89.214142 146.892578,116.392326 146.427368,143.702606 
z"/>
<path fill="#D2F3F9" opacity="1.000000" stroke="none" 
	d="
M137.397034,67.062119 
	C137.680893,67.176216 138.890289,67.468185 138.927383,67.868713 
	C139.125549,70.008316 139.036362,72.175026 139.036514,74.332367 
	C139.037872,94.081062 139.043259,113.829758 139.028641,133.578445 
	C139.026993,135.794815 139.733704,138.605026 135.384583,137.972427 
	C135.967590,136.623199 137.864532,135.354477 137.870743,134.076553 
	C137.978775,111.815071 137.854904,89.552460 137.397034,67.062119 
z"/>
<path fill="#D0F3F9" opacity="1.000000" stroke="none" 
	d="
M61.994003,137.371857 
	C61.656914,137.156540 61.034149,136.485870 61.035114,135.816071 
	C61.068375,112.729134 61.160591,89.642296 61.616642,66.364182 
	C61.992321,89.754250 61.995731,113.335579 61.994003,137.371857 
z"/>
<path fill="#FFFFFF" opacity="1.000000" stroke="none" 
	d="
M52.610397,72.054123 
	C53.060738,94.296005 53.122215,116.759460 53.091393,139.695114 
	C52.667450,139.493958 52.045593,138.820328 52.046253,138.147308 
	C52.067745,116.190063 52.149090,94.232880 52.610397,72.054123 
z"/>
<path fill="#000000" opacity="1.000000" stroke="none" 
	d="
M95.997604,101.969589 
	C96.415100,95.726379 100.652687,98.751808 103.348236,98.021690 
	C104.871986,106.394600 103.585732,107.713303 95.299828,106.556877 
	C95.533646,105.170303 95.767326,103.784531 95.997604,101.969589 
z"/>
</svg>
